inDegrees=yes
name=ik_S51_A02_T02
DataType=double
version=3
OpenSimVersion=4.3-2021-08-27-4bc7ad9
endheader
time	pelvis_tilt	pelvis_list	pelvis_rotation	pelvis_tx	pelvis_ty	pelvis_tz	hip_flexion_r	hip_adduction_r	hip_rotation_r	knee_angle_r	knee_angle_r_beta	ankle_angle_r	subtalar_angle_r	mtp_angle_r	hip_flexion_l	hip_adduction_l	hip_rotation_l	knee_angle_l	knee_angle_l_beta	ankle_angle_l	subtalar_angle_l	mtp_angle_l	lumbar_extension	lumbar_bending	lumbar_rotation	arm_flex_r	arm_add_r	arm_rot_r	elbow_flex_r	pro_sup_r	wrist_flex_r	wrist_dev_r	arm_flex_l	arm_add_l	arm_rot_l	elbow_flex_l	pro_sup_l	wrist_flex_l	wrist_dev_l
20.81999999999965	-1.472040049025805	3.115326438355078	-69.78070852091199	0	0.9399999999999999	0	10.33589467173107	-1.705630248996768	-12.74912902413656	4.814936839271279	0.08403650112085281	0	0	0	13.07438676475885	-5.211703299466517	-6.606460228114443	24.91272078715187	0.4348090033658335	0	0	0	0	0	0	34.94327945900905	-34.94327945900905	4.629742031375745	80.09635216994488	85.37025822640084	0	0	34.94327945900905	-34.94327945900905	4.629742031375745	80.09635216994488	85.37025822633149	0	0
20.83999999999964	-1.246814964490832	3.204051564742509	-71.94191222886606	0	0.9399999999999999	0	10.31392803730457	-1.637945885824257	-10.74635152979602	4.334888720001976	0.07565808087159705	0	0	0	13.47859432375669	-3.323805088696179	-2.812630175635444	20.36537843499737	0.3554429071053541	0	0	0	0	0	0	34.97117474856104	-34.97117474856104	4.631573898264552	80.12065404204549	85.36842635960076	0	0	34.97117474856104	-34.97117474856104	4.631573898264552	80.12065404204549	85.36842635953178	0	0
20.85999999999964	-1.075789820741517	3.163155884242412	-73.92197051906041	0	0.9399999999999999	0	10.25561411615037	-1.493228963275794	-8.846425656120529	4.171954729076092	0.07281434626652582	0	0	0	13.57198600188588	-2.904133346976232	-0.6218356963760914	18.91388638371217	0.330109591743901	0	0	0	0	0	0	34.99704803934578	-34.99704803934578	4.633245769130818	80.14283024697251	85.36675448881522	0	0	34.99704803934578	-34.99704803934578	4.633245769130818	80.14283024697251	85.36675448874658	0	0
20.87999999999964	-0.9708670060539687	3.000609485196683	-75.76794538122839	0	0.9399999999999999	0	10.04787466807045	-1.31098013777023	-7.182724884265444	3.875026300035098	0.06763196753698612	0	0	0	13.36125028766973	-2.611237295706293	1.748018023713047	17.30604096375977	0.3020473953026207	0	0	0	0	0	0	35.01928638726169	-35.01928638726169	4.634679479537217	80.1618469638519	85.36532077847814	0	0	35.01928638726169	-35.01928638726169	4.634679479537217	80.1618469638519	85.36532077840965	0	0
20.89999999999964	-0.9168671260731801	2.289424767462065	-79.13771557313382	0	0.9399999999999999	0	9.34782736633796	-0.7329526394110597	-4.033384114133152	3.653934337571287	0.06377318484229691	0	0	0	12.26147825157803	-2.950208072528388	1.964932618718119	15.37550746220982	0.268353229380519	0	0	0	0	0	0	35.05077469797541	-35.05077469797541	4.636695506152208	80.18858583466515	85.3633047519604	0	0	35.05077469797541	-35.05077469797541	4.636695506152208	80.18858583466515	85.36330475189229	0	0
20.91999999999964	-0.977016900776683	1.942465150233366	-80.73814641787352	0	0.9399999999999999	0	9.022258256622951	-0.4418040475807465	-2.601863129416671	3.627475189583127	0.06331138559263108	0	0	0	11.86054446293881	-3.403931577059104	0.4163450053308758	15.38811613216003	0.2685732921854474	0	0	0	0	0	0	35.0516070574765	-35.0516070574765	4.636755812917248	80.18938647440056	85.36324444519825	0	0	35.0516070574765	-35.0516070574765	4.636755812917248	80.18938647440056	85.36324444513029	0	0
20.93999999999964	-1.135134542702012	1.677791007224688	-82.29449376337595	0	0.9399999999999999	0	8.624611311728435	-1.289403156264508	-6.613237524319529	4.795071068541419	0.08368977801317044	0	0	0	10.66919797361498	-3.213887499864147	-1.122293655101367	14.20416733058375	0.2479094874229003	0	0	0	0	0	0	35.08182565982511	-35.08182565982511	4.638708924489306	80.21529275061735	85.36129133372052	0	0	35.08182565982511	-35.08182565982511	4.638708924489306	80.21529275061735	85.36129133365296	0	0
20.95999999999964	-1.24458396347681	1.566825133466965	-82.97461476576187	0	0.9399999999999999	0	8.199997872680369	-1.40785298042357	-6.838119553646146	4.688358755364206	0.08182729679580875	0	0	0	9.925438765310755	-2.800229050182317	-3.735395543795573	13.98097338612778	0.2440140182216303	0	0	0	0	0	0	35.10530727435701	-35.10530727435701	4.640195706806167	80.23500934697391	85.35980455147514	0	0	35.10530727435701	-35.10530727435701	4.640195706806167	80.23500934697391	85.35980455140783	0	0
20.97999999999964	-1.427815753567493	1.375589558995636	-84.07687060030619	0	0.9399999999999999	0	7.845508946216036	-1.290048722963911	-6.512975541790475	4.727661367654408	0.08251325678490756	0	0	0	8.829345066830811	-2.798936731353943	-2.081009072831403	12.71689419882054	0.2219516743971848	0	0	0	0	0	0	35.11933882166846	-35.11933882166846	4.641109681178794	80.24713308265376	85.35889057714672	0	0	35.11933882166846	-35.11933882166846	4.641109681178794	80.24713308265376	85.35889057707958	0	0
20.99999999999964	-1.500469074238694	1.227388089476295	-84.86386685768535	0	0.9399999999999999	0	7.545719880166006	-1.286196147668283	-6.549694161332798	4.80476951279564	0.08385904779772774	0	0	0	8.018113353166305	-3.423475826651595	-5.991961114312766	11.5595358010068	0.2017519597297286	0	0	0	0	0	0	35.13638333927205	-35.13638333927205	4.642207931033773	80.26169957211746	85.35779232734473	0	0	35.13638333927205	-35.13638333927205	4.642207931033773	80.26169957211746	85.35779232727778	0	0
21.01999999999964	-1.501470860535989	1.131031804716623	-85.19451280362625	0	0.9399999999999999	0	7.290781252405481	-1.468947381282313	-7.047381087677151	4.891428453818552	0.08537153164486913	0	0	0	7.861716482445051	-3.060702474850031	-2.121159662241942	11.44186206371372	0.1996981655708377	0	0	0	0	0	0	35.15107295983702	-35.15107295983702	4.643144444548573	80.27412004882363	85.35685581387501	0	0	35.15107295983702	-35.15107295983702	4.643144444548573	80.27412004882363	85.35685581380828	0	0
21.03999999999964	-1.483309544622409	0.9428592520351693	-85.77063060417679	0	0.9399999999999999	0	6.925345245946432	-1.661406681728882	-7.238757538709994	4.892318307166797	0.08538706251565591	0	0	0	7.647591544624102	-2.810594433427541	-1.045825701492238	11.28470681140002	0.1969552889811612	0	0	0	0	0	0	35.15195268962513	-35.15195268962513	4.643208290126228	80.27496763133406	85.3567919683005	0	0	35.15195268962513	-35.15195268962513	4.643208290126228	80.27496763133406	85.35679196823376	0	0
21.05999999999964	-1.507096479212231	0.8232101823429619	-86.29531776908614	0	0.9399999999999999	0	6.810839531864228	-1.598265615196024	-6.740313521209458	4.868378201794694	0.08496922885363832	0	0	0	7.292668068548434	-2.675097842053628	-0.8883336172505059	10.72148275596228	0.1871251747873376	0	0	0	0	0	0	35.15396139851187	-35.15396139851187	4.6433541406735	80.27690387659197	85.35664611776038	0	0	35.15396139851187	-35.15396139851187	4.6433541406735	80.27690387659197	85.35664611769369	0	0
21.07999999999964	-1.541975258275864	0.7962368911496356	-86.76479712584685	0	0.9399999999999999	0	6.694019051990339	-1.754629000610591	-6.763662170806267	4.944261040269269	0.08629363423077868	0	0	0	7.242398537398519	-2.725136423655718	-1.456970871114337	10.50146561177315	0.1832851512104021	0	0	0	0	0	0	35.15521388172692	-35.15521388172692	4.643444875982568	80.27810841604673	85.35655538245582	0	0	35.15521388172692	-35.15521388172692	4.643444875982568	80.27810841604673	85.35655538238912	0	0
21.09999999999964	-1.538096445571404	0.8170046005937673	-87.1990365772532	0	0.9399999999999999	0	6.780023847593702	-2.252677836094258	-6.726466374014534	5.097435329363465	0.08896702990487405	0	0	0	7.254032826575407	-2.71845921873127	-1.971641569993182	10.23235276143117	0.1785882459125079	0	0	0	0	0	0	35.15612629792133	-35.15612629792133	4.643510859056598	80.27898435016637	85.35648939938504	0	0	35.15612629792133	-35.15612629792133	4.643510859056598	80.27898435016637	85.35648939931833	0	0
21.11999999999964	-1.44739845171595	1.051622211424104	-87.85368624557405	0	0.9399999999999999	0	7.001551863113405	-2.357955496463132	-6.149328549180061	5.135235182397423	0.08962676179708659	0	0	0	7.430224358783628	-2.706034362096555	-2.618297606487177	10.14739628252845	0.1771054756347542	0	0	0	0	0	0	35.15684488243168	-35.15684488243168	4.643562464585978	80.27966938511905	85.35643779385819	0	0	35.15684488243168	-35.15684488243168	4.643562464585978	80.27966938511905	85.3564377937915	0	0
21.13999999999964	-1.348326445775324	1.214066558103136	-87.97927122813526	0	0.9399999999999999	0	7.253434262327631	-2.83065315995457	-6.157727899209221	5.273543056978652	0.09204068958996441	0	0	0	7.661012575366767	-2.469068527534434	-2.715428015921128	9.389630909348048	0.1638799749151526	0	0	0	0	0	0	35.15801647157834	-35.15801647157834	4.643647156551692	80.28079367753195	85.35635310189662	0	0	35.15801647157834	-35.15801647157834	4.643647156551692	80.28079367753195	85.35635310182995	0	0
21.15999999999964	-1.232385032787506	1.465158676752552	-88.22764990094009	0	0.9399999999999999	0	7.639609550267929	-3.306354806794515	-6.110645364856209	5.526744771400399	0.0964598931783183	0	0	0	7.896386581678547	-2.319423647984231	-2.975553314542922	8.76171964918054	0.1529208560148829	0	0	0	0	0	0	35.15934418018939	-35.15934418018939	4.643743192765506	80.28206856994387	85.35625706568759	0	0	35.15934418018939	-35.15934418018939	4.643743192765506	80.28206856994387	85.35625706562092	0	0
21.17999999999964	-1.166789913112712	1.753451864791267	-88.44442801573035	0	0.9399999999999999	0	8.31244607176464	-4.143493896004749	-7.463770027737122	6.559737609994235	0.1144890193613031	0	0	0	8.143225314317682	-2.205319849411489	-3.211569787159306	8.051946797636962	0.1405329828141786	0	0	0	0	0	0	35.16339002331514	-35.16339002331514	4.644036499893923	80.28596230286971	85.35596375857359	0	0	35.16339002331514	-35.16339002331514	4.644036499893923	80.28596230286971	85.35596375850702	0	0
21.19999999999964	-1.152161649835833	2.111146810484561	-88.66571194230167	0	0.9399999999999999	0	8.972301504511531	-4.567626163900336	-8.363607247079418	7.221246175424073	0.1260345218581981	0	0	0	6.321893788139128	-1.485657087122865	-2.522638886514107	5.130484585147563	0.08954384823364035	0	0	0	0	0	0	35.16600826502441	-35.16600826502441	4.644226505667995	80.28848469997884	85.3557737528089	0	0	35.16600826502441	-35.16600826502441	4.644226505667995	80.28848469997884	85.35577375274232	0	0
21.21999999999964	-1.154778585399801	2.485444599234072	-88.88288609548579	0	0.9399999999999999	0	9.781339662240597	-5.050595244908834	-9.493950950406061	8.093406631804379	0.1412565934277308	0	0	0	5.983315786886179	-1.472584585086969	-3.496371280175942	4.685799348964228	0.08178262672723254	0	0	0	0	0	0	35.16870786170744	-35.16870786170744	4.64442161374263	80.29107474608229	85.35557864474383	0	0	35.16870786170744	-35.16870786170744	4.64442161374263	80.29107474608229	85.35557864467731	0	0
21.23999999999964	-1.17886129093639	2.832806819039916	-89.1533001536706	0	0.9399999999999999	0	10.7071044860474	-5.487965191953474	-10.85071733547713	9.197178579359184	0.1605210481037123	0	0	0	6.083493986121806	-1.335489584887317	-4.031662667100608	3.181990144715598	0.05553620479129804	0	0	0	0	0	0	35.17248184518547	-35.17248184518547	4.644694819171669	80.29470156003831	85.35530543932821	0	0	35.17248184518547	-35.17248184518547	4.644694819171669	80.29470156003831	85.35530543926176	0	0
